screens;
 
http://baypic.net/img-519fbd4c1ab10.html 
 
http://baypic.net/img-519fbd4e68230.html 
 
http://baypic.net/img-519fbd50b6333.html 

Format : MPEG-4
Format profile : Base Media / Version 2
Codec ID : mp42
File size : 2.67 GiB
Duration : 43mn 4s
Overall bit rate mode : Variable
Overall bit rate : 8 866 Kbps
Encoded date : UTC 2013-05-23 21:33:37
Tagged date : UTC 2013-05-23 21:33:37
Writing library : Apple QuickTime

Video
ID : 1
Format : AVC
Format/Info : Advanced Video Codec
Format profile : Baseline@L4.0
Format settings, CABAC : No
Format settings, ReFrames : 2 frames
Codec ID : avc1
Codec ID/Info : Advanced Video Coding
Duration : 43mn 4s
Source duration : 43mn 4s
Bit rate : 8 703 Kbps
Width : 1 920 pixels
Height : 1 080 pixels
Display aspect ratio : 16:9
Frame rate mode : Constant
Frame rate : 29.970 fps
Standard : NTSC
Color space : YUV
Chroma subsampling : 4:2:0
Bit depth : 8 bits
Scan type : Progressive
Bits/(Pixel*Frame) : 0.140
Stream size : 2.62 GiB (98%)
Source stream size : 2.62 GiB (98%)
Language : English
Encoded date : UTC 2013-05-23 21:33:37
Tagged date : UTC 2013-05-23 21:33:37
mdhd_Duration : 2584110

Audio
ID : 2
Format : AAC
Format/Info : Advanced Audio Codec
Format profile : LC
Codec ID : 40
Duration : 43mn 4s
Bit rate mode : Variable
Bit rate : 160 Kbps
Maximum bit rate : 164 Kbps
Channel(s) : 2 channels
Channel positions : Front: L R
Sampling rate : 48.0 KHz
Compression mode : Lossy
Stream size : 49.3 MiB (2%)
Language : English
